<?xml version="1.0" standalone="no"?><!DOCTYPE svg PUBLIC "-//W3C//DTD SVG 1.1//EN" "http://www.w3.org/Graphics/SVG/1.1/DTD/svg11.dtd"><svg t="1725343051722" class="icon" viewBox="0 0 1024 1024" version="1.1" xmlns="http://www.w3.org/2000/svg" p-id="3870" width="32" height="32" xmlns:xlink="http://www.w3.org/1999/xlink"><path d="M34.4064 107.3152h151.9616v153.1904H34.4064zM35.6352 307.6096h151.9616v153.1904H35.6352zM35.6352 507.4944h151.9616v153.1904H35.6352zM237.1584 307.6096H389.12v153.1904H237.1584zM237.1584 507.4944H389.12v153.1904H237.1584zM734.4128 774.144h151.9616v153.1904h-151.9616zM532.8896 774.144h151.9616v153.1904h-151.9616zM438.272 307.6096h151.9616v153.1904H438.272zM438.272 507.4944h151.9616v153.1904H438.272zM331.776 774.144h151.9616v153.1904H331.776zM638.5664 107.3152H790.528v153.1904h-151.9616zM639.7952 307.6096h151.9616v153.1904h-151.9616zM130.2528 774.144h151.9616v153.1904H130.2528zM840.4992 107.3152h151.9616v153.1904h-151.9616zM841.728 307.6096h151.9616v153.1904h-151.9616zM639.7952 507.4944h151.552v153.1904h-151.552zM841.728 507.4944h151.9616v153.1904h-151.9616z" p-id="3871" fill="#515151"></path></svg>