<?xml version="1.0" standalone="no"?><!DOCTYPE svg PUBLIC "-//W3C//DTD SVG 1.1//EN" "http://www.w3.org/Graphics/SVG/1.1/DTD/svg11.dtd"><svg t="1725267103805" class="icon" viewBox="0 0 1026 1024" version="1.1" xmlns="http://www.w3.org/2000/svg" p-id="14322" xmlns:xlink="http://www.w3.org/1999/xlink" width="19" height="18"><path d="M973.419151 710.657796a184.025956 184.025956 0 0 0-196.10488-41.210446L355.262464 250.237643A183.315431 183.315431 0 0 0 177.631232 0.132868a35.526246 35.526246 0 0 0-35.526246 37.657821 36.236771 36.236771 0 0 0 39.078871 33.394672 112.973464 112.973464 0 0 1 85.973516 192.552255 115.105038 115.105038 0 0 1-159.157584 0 111.552414 111.552414 0 0 1-32.684147-83.841941A35.526246 35.526246 0 0 0 40.499921 142.237854a34.815721 34.815721 0 0 0-36.947296 34.105196A183.315431 183.315431 0 0 0 253.657399 355.395332l418.499183 418.499183a183.315431 183.315431 0 0 0 171.236508 250.104774H852.629914a35.526246 35.526246 0 1 0-3.552625-71.052492 112.973464 112.973464 0 1 1 71.052493-192.552256 111.552414 111.552414 0 0 1 32.684147 83.841942 35.526246 35.526246 0 0 0 34.105196 36.947296 36.236771 36.236771 0 0 0 36.947296-34.105197A184.736481 184.736481 0 0 0 973.419151 710.657796z" p-id="14323"></path><path d="M442.65703 648.842127A75.315642 75.315642 0 0 0 426.314957 626.10533l-51.86832-51.86832L365.920338 568.552811A71.052493 71.052493 0 0 0 269.999473 568.552811L32.684147 808.710236a110.841889 110.841889 0 0 0 157.026009 157.026009L426.314957 728.420919a71.052493 71.052493 0 0 0 16.342073-78.868267zM949.971829 101.027408l-52.578845-51.86832-326.841467 326.130942 53.28937 52.578845 326.130942-326.841467z" p-id="14324"></path></svg>